<svg width="1037" height="289" viewBox="0 0 1037 289" fill="none" xmlns="http://www.w3.org/2000/svg">
<path d="M85 0.999983C114.067 0.73332 142.333 2.06665 169.8 4.99998C170.333 13.8 170.467 23.9333 170.2 35.4C170.2 46.8667 169.533 57.4 168.2 67C163.133 65.9333 156.867 65.5333 149.4 65.8C141.933 66.0666 131.933 66.4666 119.4 67H118.6H118.2C118.2 67.2667 118.067 67.5333 117.8 67.8C117.8 67.8 117.8 67.9333 117.8 68.2C117.533 69.5333 117.267 71.6667 117 74.6C117 77.2667 117 81.6667 117 87.8C117 93.6667 117 101.533 117 111.4C117.267 121 117.533 133.533 117.8 149C118.067 164.2 118.333 182.6 118.6 204.2C118.867 225.533 119.267 250.733 119.8 279.8V280.2V280.6C115 281.4 109.667 281.933 103.8 282.2C98.2 282.2 92.4667 282.2 86.6 282.2C81 282.2 75.4 282.2 69.8 282.2C64.2 282.2 59 282.6 54.2 283.4C53.9333 282.333 53.9333 277.533 54.2 269C54.4667 260.467 54.6 247.8 54.6 231C54.8667 213.933 54.7333 192.2 54.2 165.8C53.9333 139.4 53 107.533 51.4 70.2L51 69.8C47.8 68.2 43.8 67.2667 39 67C34.2 66.4666 29.4 66.2 24.6 66.2C19.8 65.9333 15.4 65.8 11.4 65.8C7.4 65.8 4.6 65.5333 3 65C2.46667 63.9333 1.93333 61.2667 1.4 57C1.13333 52.7333 0.866667 47.6667 0.6 41.8C0.6 35.6666 0.6 29.1333 0.6 22.2C0.6 15.2667 0.866667 8.59999 1.4 2.19999C1.4 1.93333 1.26667 1.8 1 1.8C1 1.8 1 1.66666 1 1.39998C28.2 1.13331 56.2 0.999983 85 0.999983ZM295.775 124.2C297.642 131.933 299.108 138.067 300.175 142.6L330.175 282.6V283C322.175 284.6 313.375 285.133 303.775 284.6C294.175 284.333 285.108 283.267 276.575 281.4H276.175C274.575 277.133 272.975 272.067 271.375 266.2C270.042 260.333 268.575 254.333 266.975 248.2C265.642 242.067 264.175 236.2 262.575 230.6C260.975 225 259.242 220.2 257.375 216.2C253.908 215.667 251.242 215.4 249.375 215.4C247.508 215.4 245.775 215.4 244.175 215.4C242.842 215.4 241.242 215.533 239.375 215.8C237.775 215.8 235.508 215.8 232.575 215.8C230.708 220.067 229.108 225.133 227.775 231C226.708 236.6 225.508 242.6 224.175 249C223.108 255.133 221.908 261.133 220.575 267C219.242 272.867 217.375 278.067 214.975 282.6C214.708 282.6 214.442 282.733 214.175 283C214.175 283 214.042 283 213.775 283C211.642 283.533 206.308 283.533 197.775 283C189.242 282.467 175.908 282.333 157.775 282.6C157.508 282.6 157.242 282.467 156.975 282.2C157.508 280.333 158.442 275.133 159.775 266.6C161.108 258.067 162.975 247 165.375 233.4C167.775 219.8 170.575 204.2 173.775 186.6C177.242 168.733 181.242 149.8 185.775 129.8C190.308 109.8 195.242 89 200.575 67.4C205.908 45.8 211.775 24.3333 218.175 2.99998C220.042 2.73332 222.042 2.59999 224.175 2.59999C226.308 2.59999 229.108 2.59999 232.575 2.59999C236.042 2.59999 240.442 2.59999 245.775 2.59999C251.375 2.33332 258.575 1.79999 267.375 0.999983C268.175 4.46665 269.375 9.79999 270.975 17C272.842 23.9333 274.708 31.9333 276.575 41C278.708 49.8 280.842 59.2667 282.975 69.4C285.375 79.5333 287.642 89.2667 289.775 98.6C291.908 107.933 293.908 116.467 295.775 124.2ZM244.175 169C249.242 168.733 254.308 168.6 259.375 168.6C256.708 145.667 254.308 127.8 252.175 115C250.308 102.2 248.575 93.5333 246.975 89C245.642 84.4667 244.175 83.5333 242.575 86.2C241.242 88.6 239.908 93.6667 238.575 101.4C237.508 109.133 236.175 118.867 234.575 130.6C233.242 142.333 231.642 155 229.775 168.6C234.308 168.867 239.108 169 244.175 169ZM397.453 0.999983C426.52 0.73332 454.786 2.06665 482.253 4.99998C482.786 13.8 482.92 23.9333 482.653 35.4C482.653 46.8667 481.986 57.4 480.653 67C475.586 65.9333 469.32 65.5333 461.853 65.8C454.386 66.0666 444.386 66.4666 431.853 67H431.053H430.653C430.653 67.2667 430.52 67.5333 430.253 67.8C430.253 67.8 430.253 67.9333 430.253 68.2C429.986 69.5333 429.72 71.6667 429.453 74.6C429.453 77.2667 429.453 81.6667 429.453 87.8C429.453 93.6667 429.453 101.533 429.453 111.4C429.72 121 429.986 133.533 430.253 149C430.52 164.2 430.786 182.6 431.053 204.2C431.32 225.533 431.72 250.733 432.253 279.8V280.2V280.6C427.453 281.4 422.12 281.933 416.253 282.2C410.653 282.2 404.92 282.2 399.053 282.2C393.453 282.2 387.853 282.2 382.253 282.2C376.653 282.2 371.453 282.6 366.653 283.4C366.386 282.333 366.386 277.533 366.653 269C366.92 260.467 367.053 247.8 367.053 231C367.32 213.933 367.186 192.2 366.653 165.8C366.386 139.4 365.453 107.533 363.853 70.2L363.453 69.8C360.253 68.2 356.253 67.2667 351.453 67C346.653 66.4666 341.853 66.2 337.053 66.2C332.253 65.9333 327.853 65.8 323.853 65.8C319.853 65.8 317.053 65.5333 315.453 65C314.92 63.9333 314.386 61.2667 313.853 57C313.586 52.7333 313.32 47.6667 313.053 41.8C313.053 35.6666 313.053 29.1333 313.053 22.2C313.053 15.2667 313.32 8.59999 313.853 2.19999C313.853 1.93333 313.72 1.8 313.453 1.8C313.453 1.8 313.453 1.66666 313.453 1.39998C340.653 1.13331 368.653 0.999983 397.453 0.999983ZM573.797 0.999983C602.864 0.73332 631.13 2.06665 658.597 4.99998C659.13 13.8 659.264 23.9333 658.997 35.4C658.997 46.8667 658.33 57.4 656.997 67C651.93 65.9333 645.664 65.5333 638.197 65.8C630.73 66.0666 620.73 66.4666 608.197 67H607.397H606.997C606.997 67.2667 606.864 67.5333 606.597 67.8C606.597 67.8 606.597 67.9333 606.597 68.2C606.33 69.5333 606.064 71.6667 605.797 74.6C605.797 77.2667 605.797 81.6667 605.797 87.8C605.797 93.6667 605.797 101.533 605.797 111.4C606.064 121 606.33 133.533 606.597 149C606.864 164.2 607.13 182.6 607.397 204.2C607.664 225.533 608.064 250.733 608.597 279.8V280.2V280.6C603.797 281.4 598.464 281.933 592.597 282.2C586.997 282.2 581.264 282.2 575.397 282.2C569.797 282.2 564.197 282.2 558.597 282.2C552.997 282.2 547.797 282.6 542.997 283.4C542.73 282.333 542.73 277.533 542.997 269C543.264 260.467 543.397 247.8 543.397 231C543.664 213.933 543.53 192.2 542.997 165.8C542.73 139.4 541.797 107.533 540.197 70.2L539.797 69.8C536.597 68.2 532.597 67.2667 527.797 67C522.997 66.4666 518.197 66.2 513.397 66.2C508.597 65.9333 504.197 65.8 500.197 65.8C496.197 65.8 493.397 65.5333 491.797 65C491.264 63.9333 490.73 61.2667 490.197 57C489.93 52.7333 489.664 47.6667 489.397 41.8C489.397 35.6666 489.397 29.1333 489.397 22.2C489.397 15.2667 489.664 8.59999 490.197 2.19999C490.197 1.93333 490.064 1.8 489.797 1.8C489.797 1.8 489.797 1.66666 489.797 1.39998C516.997 1.13331 544.997 0.999983 573.797 0.999983ZM820.541 21.8C828.274 28.7333 833.741 36.8667 836.941 46.2C838.807 50.2 840.141 54.3333 840.941 58.6C842.007 62.6 842.807 66.7333 843.341 71C843.874 77.6667 844.141 84.3333 844.141 91C844.407 97.4 844.407 103.933 844.141 110.6C843.341 124.733 843.074 138.467 843.341 151.8C843.607 165.133 843.207 178.733 842.141 192.6L840.941 205.8C840.407 215.133 838.941 224.6 836.541 234.2C834.141 243.533 830.541 252.067 825.741 259.8C821.207 266.2 815.207 271.4 807.741 275.4C800.541 279.133 792.807 282.067 784.541 284.2C777.074 286.333 769.474 287.667 761.741 288.2C754.274 288.733 746.674 288.733 738.941 288.2C733.341 287.667 727.874 286.867 722.541 285.8C717.474 285 712.541 283.533 707.741 281.4C703.207 279.267 699.074 276.6 695.341 273.4C691.607 269.933 688.541 265.533 686.141 260.2C682.407 253.533 679.874 246.467 678.541 239C677.474 231.267 676.807 223.533 676.541 215.8C675.741 195 674.807 174.2 673.741 153.4C672.941 132.333 673.207 111.267 674.541 90.2C674.807 78.2 676.274 66.2 678.941 54.2C681.874 41.9333 687.474 31.1333 695.741 21.8C698.407 19.1333 701.474 16.7333 704.941 14.6C713.741 10.3333 723.207 7.26666 733.341 5.4C743.741 3.26666 754.007 2.46665 764.141 2.99998C774.541 3.53332 784.541 5.39999 794.141 8.59998C804.007 11.5333 812.807 15.9333 820.541 21.8ZM794.141 163V143.8L793.341 116.6C793.341 116.333 793.074 113.667 792.541 108.6C792.274 103.267 792.007 98.3333 791.741 93.8C791.207 86.3333 789.074 79.5333 785.341 73.4C781.874 67.2666 777.074 62.7333 770.941 59.8C765.607 57.6667 760.141 57.2666 754.541 58.6C748.941 59.9333 744.007 62.2 739.741 65.4C730.407 72.6 724.141 81.8 720.941 93C718.807 103.133 717.474 113.8 716.941 125C716.674 136.2 716.807 147.4 717.341 158.6C718.674 167.933 719.607 177.533 720.141 187.4C720.674 197 722.274 206.2 724.941 215C727.607 220.333 731.474 224.467 736.541 227.4C741.607 230.333 747.074 232.067 752.941 232.6C758.807 232.867 764.674 232.067 770.541 230.2C776.407 228.067 781.341 224.733 785.341 220.2C787.741 217 789.474 214.467 790.541 212.6C791.607 210.467 792.274 208.2 792.541 205.8C792.807 203.4 792.807 200.6 792.541 197.4C792.541 193.933 792.807 189.4 793.341 183.8C793.607 178.467 793.741 173.8 793.741 169.8C794.007 165.8 794.141 163.533 794.141 163ZM1012.9 21.8C1020.63 28.7333 1026.1 36.8667 1029.3 46.2C1031.17 50.2 1032.5 54.3333 1033.3 58.6C1034.37 62.6 1035.17 66.7333 1035.7 71C1036.23 77.6667 1036.5 84.3333 1036.5 91C1036.77 97.4 1036.77 103.933 1036.5 110.6C1035.7 124.733 1035.43 138.467 1035.7 151.8C1035.97 165.133 1035.57 178.733 1034.5 192.6L1033.3 205.8C1032.77 215.133 1031.3 224.6 1028.9 234.2C1026.5 243.533 1022.9 252.067 1018.1 259.8C1013.57 266.2 1007.57 271.4 1000.1 275.4C992.9 279.133 985.167 282.067 976.9 284.2C969.433 286.333 961.833 287.667 954.1 288.2C946.633 288.733 939.033 288.733 931.3 288.2C925.7 287.667 920.233 286.867 914.9 285.8C909.833 285 904.9 283.533 900.1 281.4C895.567 279.267 891.433 276.6 887.7 273.4C883.967 269.933 880.9 265.533 878.5 260.2C874.767 253.533 872.233 246.467 870.9 239C869.833 231.267 869.167 223.533 868.9 215.8C868.1 195 867.167 174.2 866.1 153.4C865.3 132.333 865.567 111.267 866.9 90.2C867.167 78.2 868.633 66.2 871.3 54.2C874.233 41.9333 879.833 31.1333 888.1 21.8C890.767 19.1333 893.833 16.7333 897.3 14.6C906.1 10.3333 915.567 7.26666 925.7 5.4C936.1 3.26666 946.367 2.46665 956.5 2.99998C966.9 3.53332 976.9 5.39999 986.5 8.59998C996.367 11.5333 1005.17 15.9333 1012.9 21.8ZM986.5 163V143.8L985.7 116.6C985.7 116.333 985.433 113.667 984.9 108.6C984.633 103.267 984.367 98.3333 984.1 93.8C983.567 86.3333 981.433 79.5333 977.7 73.4C974.233 67.2666 969.433 62.7333 963.3 59.8C957.967 57.6667 952.5 57.2666 946.9 58.6C941.3 59.9333 936.367 62.2 932.1 65.4C922.767 72.6 916.5 81.8 913.3 93C911.167 103.133 909.833 113.8 909.3 125C909.033 136.2 909.167 147.4 909.7 158.6C911.033 167.933 911.967 177.533 912.5 187.4C913.033 197 914.633 206.2 917.3 215C919.967 220.333 923.833 224.467 928.9 227.4C933.967 230.333 939.433 232.067 945.3 232.6C951.167 232.867 957.033 232.067 962.9 230.2C968.767 228.067 973.7 224.733 977.7 220.2C980.1 217 981.833 214.467 982.9 212.6C983.967 210.467 984.633 208.2 984.9 205.8C985.167 203.4 985.167 200.6 984.9 197.4C984.9 193.933 985.167 189.4 985.7 183.8C985.967 178.467 986.1 173.8 986.1 169.8C986.367 165.8 986.5 163.533 986.5 163Z" fill="#212121"/>
</svg>
