<svg width="548" height="234" viewBox="0 0 548 234" fill="none" xmlns="http://www.w3.org/2000/svg">
<path d="M17.5455 0.81818V59H1.75V0.81818H17.5455ZM74.3722 0.81818V59H61.1903L40.1676 28.4318H39.8267V59H24.0312V0.81818H37.4403L58.1222 31.2727H58.5767V0.81818H74.3722ZM112.207 19C112.056 17.1061 111.346 15.6288 110.077 14.5682C108.827 13.5076 106.923 12.9773 104.366 12.9773C102.738 12.9773 101.402 13.1761 100.361 13.5739C99.3381 13.9527 98.5805 14.4735 98.0881 15.1364C97.5956 15.7992 97.34 16.5568 97.321 17.4091C97.2831 18.1098 97.4063 18.7443 97.6903 19.3125C97.9934 19.8617 98.4669 20.3636 99.1108 20.8182C99.7547 21.2538 100.579 21.6515 101.582 22.0114C102.586 22.3712 103.779 22.6932 105.162 22.9773L109.935 24C113.154 24.6818 115.91 25.5814 118.202 26.6989C120.493 27.8163 122.368 29.1326 123.827 30.6477C125.285 32.1439 126.355 33.8295 127.037 35.7045C127.738 37.5795 128.098 39.625 128.116 41.8409C128.098 45.6667 127.141 48.9053 125.247 51.5568C123.353 54.2083 120.645 56.2254 117.122 57.608C113.618 58.9905 109.404 59.6818 104.48 59.6818C99.4233 59.6818 95.0104 58.9337 91.2415 57.4375C87.4915 55.9413 84.5748 53.6402 82.4915 50.5341C80.4271 47.4091 79.3854 43.4129 79.3665 38.5455H94.3665C94.4612 40.3258 94.9063 41.822 95.7017 43.0341C96.4972 44.2462 97.6146 45.1648 99.054 45.7898C100.512 46.4148 102.245 46.7273 104.253 46.7273C105.938 46.7273 107.349 46.5189 108.486 46.1023C109.622 45.6856 110.484 45.108 111.071 44.3693C111.658 43.6307 111.961 42.7879 111.98 41.8409C111.961 40.9508 111.668 40.1742 111.099 39.5114C110.55 38.8295 109.641 38.2235 108.372 37.6932C107.103 37.1439 105.389 36.6326 103.23 36.1591L97.4347 34.9091C92.2831 33.7917 88.2206 31.9261 85.2472 29.3125C82.2926 26.6799 80.8248 23.0909 80.8438 18.5455C80.8248 14.8523 81.8097 11.6231 83.7983 8.85795C85.8059 6.07386 88.5805 3.9053 92.1222 2.35227C95.6828 0.79924 99.7642 0.0227251 104.366 0.0227251C109.063 0.0227251 113.126 0.80871 116.554 2.38068C119.982 3.95265 122.624 6.16856 124.48 9.02841C126.355 11.8693 127.302 15.1932 127.321 19H112.207ZM133.125 59V0.81818H158.239C162.557 0.81818 166.335 1.67045 169.574 3.375C172.813 5.07954 175.331 7.47538 177.131 10.5625C178.93 13.6496 179.83 17.2576 179.83 21.3864C179.83 25.553 178.902 29.161 177.045 32.2102C175.208 35.2595 172.623 37.608 169.29 39.2557C165.975 40.9034 162.102 41.7273 157.67 41.7273H142.67V29.4545H154.489C156.345 29.4545 157.926 29.1326 159.233 28.4886C160.559 27.8258 161.572 26.8883 162.273 25.6761C162.992 24.464 163.352 23.0341 163.352 21.3864C163.352 19.7197 162.992 18.2992 162.273 17.125C161.572 15.9318 160.559 15.0227 159.233 14.3977C157.926 13.7538 156.345 13.4318 154.489 13.4318H148.92V59H133.125ZM200.42 0.81818V59H184.625V0.81818H200.42ZM206.906 59V0.81818H232.02C236.338 0.81818 240.116 1.60417 243.355 3.17614C246.594 4.74811 249.113 7.01136 250.912 9.96591C252.711 12.9205 253.611 16.4621 253.611 20.5909C253.611 24.7576 252.683 28.2708 250.827 31.1307C248.99 33.9905 246.404 36.1496 243.071 37.608C239.757 39.0663 235.884 39.7955 231.452 39.7955H216.452V27.5227H228.27C230.126 27.5227 231.707 27.2955 233.014 26.8409C234.34 26.3674 235.353 25.6193 236.054 24.5966C236.774 23.5739 237.134 22.2386 237.134 20.5909C237.134 18.9242 236.774 17.5701 236.054 16.5284C235.353 15.4678 234.34 14.6913 233.014 14.1989C231.707 13.6875 230.126 13.4318 228.27 13.4318H222.702V59H206.906ZM240.997 32.2955L255.543 59H238.384L224.179 32.2955H240.997ZM259.344 59V0.81818H301.276V13.5455H275.139V23.5455H299.116V36.2727H275.139V46.2727H301.162V59H259.344ZM336.973 24V35.8182H309.7V24H336.973ZM376.442 19C376.29 17.1061 375.58 15.6288 374.311 14.5682C373.061 13.5076 371.158 12.9773 368.601 12.9773C366.972 12.9773 365.637 13.1761 364.595 13.5739C363.572 13.9527 362.815 14.4735 362.322 15.1364C361.83 15.7992 361.574 16.5568 361.555 17.4091C361.518 18.1098 361.641 18.7443 361.925 19.3125C362.228 19.8617 362.701 20.3636 363.345 20.8182C363.989 21.2538 364.813 21.6515 365.817 22.0114C366.821 22.3712 368.014 22.6932 369.396 22.9773L374.169 24C377.389 24.6818 380.144 25.5814 382.436 26.6989C384.728 27.8163 386.603 29.1326 388.061 30.6477C389.519 32.1439 390.589 33.8295 391.271 35.7045C391.972 37.5795 392.332 39.625 392.351 41.8409C392.332 45.6667 391.375 48.9053 389.482 51.5568C387.588 54.2083 384.879 56.2254 381.357 57.608C377.853 58.9905 373.639 59.6818 368.714 59.6818C363.658 59.6818 359.245 58.9337 355.476 57.4375C351.726 55.9413 348.809 53.6402 346.726 50.5341C344.661 47.4091 343.62 43.4129 343.601 38.5455H358.601C358.696 40.3258 359.141 41.822 359.936 43.0341C360.732 44.2462 361.849 45.1648 363.288 45.7898C364.747 46.4148 366.48 46.7273 368.487 46.7273C370.173 46.7273 371.584 46.5189 372.72 46.1023C373.857 45.6856 374.718 45.108 375.305 44.3693C375.893 43.6307 376.196 42.7879 376.214 41.8409C376.196 40.9508 375.902 40.1742 375.334 39.5114C374.785 38.8295 373.875 38.2235 372.607 37.6932C371.338 37.1439 369.624 36.6326 367.464 36.1591L361.669 34.9091C356.518 33.7917 352.455 31.9261 349.482 29.3125C346.527 26.6799 345.059 23.0909 345.078 18.5455C345.059 14.8523 346.044 11.6231 348.033 8.85795C350.04 6.07386 352.815 3.9053 356.357 2.35227C359.917 0.79924 363.999 0.0227251 368.601 0.0227251C373.298 0.0227251 377.36 0.80871 380.788 2.38068C384.216 3.95265 386.858 6.16856 388.714 9.02841C390.589 11.8693 391.536 15.1932 391.555 19H376.442ZM397.359 59V0.81818H439.291V13.5455H413.155V23.5455H437.132V36.2727H413.155V46.2727H439.178V59H397.359ZM1.75 146V87.8182H43.6818V100.545H17.5455V110.545H41.5227V123.273H17.5455V133.273H43.5682V146H1.75ZM67.4474 87.8182L76.9929 104.75H77.4474L87.1065 87.8182H104.72L87.3338 116.909L105.402 146H87.3338L77.4474 128.727H76.9929L67.1065 146H49.152L66.9929 116.909L49.7202 87.8182H67.4474ZM110.531 146V87.8182H135.645C139.963 87.8182 143.741 88.6705 146.98 90.375C150.219 92.0795 152.738 94.4754 154.537 97.5625C156.336 100.65 157.236 104.258 157.236 108.386C157.236 112.553 156.308 116.161 154.452 119.21C152.615 122.259 150.029 124.608 146.696 126.256C143.382 127.903 139.509 128.727 135.077 128.727H120.077V116.455H131.895C133.751 116.455 135.332 116.133 136.639 115.489C137.965 114.826 138.978 113.888 139.679 112.676C140.399 111.464 140.759 110.034 140.759 108.386C140.759 106.72 140.399 105.299 139.679 104.125C138.978 102.932 137.965 102.023 136.639 101.398C135.332 100.754 133.751 100.432 131.895 100.432H126.327V146H110.531ZM162.031 146V87.8182H187.145C191.463 87.8182 195.241 88.6042 198.48 90.1761C201.719 91.7481 204.238 94.0114 206.037 96.9659C207.836 99.9205 208.736 103.462 208.736 107.591C208.736 111.758 207.808 115.271 205.952 118.131C204.115 120.991 201.529 123.15 198.196 124.608C194.882 126.066 191.009 126.795 186.577 126.795H171.577V114.523H183.395C185.251 114.523 186.832 114.295 188.139 113.841C189.465 113.367 190.478 112.619 191.179 111.597C191.899 110.574 192.259 109.239 192.259 107.591C192.259 105.924 191.899 104.57 191.179 103.528C190.478 102.468 189.465 101.691 188.139 101.199C186.832 100.687 185.251 100.432 183.395 100.432H177.827V146H162.031ZM196.122 119.295L210.668 146H193.509L179.304 119.295H196.122ZM214.469 146V87.8182H256.401V100.545H230.264V110.545H254.241V123.273H230.264V133.273H256.287V146H214.469ZM294.598 106C294.446 104.106 293.736 102.629 292.467 101.568C291.217 100.508 289.314 99.9773 286.757 99.9773C285.128 99.9773 283.793 100.176 282.751 100.574C281.729 100.953 280.971 101.473 280.479 102.136C279.986 102.799 279.731 103.557 279.712 104.409C279.674 105.11 279.797 105.744 280.081 106.312C280.384 106.862 280.857 107.364 281.501 107.818C282.145 108.254 282.969 108.652 283.973 109.011C284.977 109.371 286.17 109.693 287.553 109.977L292.325 111C295.545 111.682 298.301 112.581 300.592 113.699C302.884 114.816 304.759 116.133 306.217 117.648C307.676 119.144 308.746 120.83 309.428 122.705C310.128 124.58 310.488 126.625 310.507 128.841C310.488 132.667 309.532 135.905 307.638 138.557C305.744 141.208 303.036 143.225 299.513 144.608C296.009 145.991 291.795 146.682 286.871 146.682C281.814 146.682 277.401 145.934 273.632 144.438C269.882 142.941 266.965 140.64 264.882 137.534C262.818 134.409 261.776 130.413 261.757 125.545H276.757C276.852 127.326 277.297 128.822 278.092 130.034C278.888 131.246 280.005 132.165 281.445 132.79C282.903 133.415 284.636 133.727 286.643 133.727C288.329 133.727 289.74 133.519 290.876 133.102C292.013 132.686 292.875 132.108 293.462 131.369C294.049 130.631 294.352 129.788 294.371 128.841C294.352 127.951 294.058 127.174 293.49 126.511C292.941 125.83 292.032 125.223 290.763 124.693C289.494 124.144 287.78 123.633 285.621 123.159L279.825 121.909C274.674 120.792 270.611 118.926 267.638 116.312C264.683 113.68 263.215 110.091 263.234 105.545C263.215 101.852 264.2 98.6231 266.189 95.858C268.196 93.0739 270.971 90.9053 274.513 89.3523C278.073 87.7992 282.155 87.0227 286.757 87.0227C291.454 87.0227 295.517 87.8087 298.945 89.3807C302.373 90.9527 305.015 93.1686 306.871 96.0284C308.746 98.8693 309.693 102.193 309.712 106H294.598ZM346.879 106C346.728 104.106 346.018 102.629 344.749 101.568C343.499 100.508 341.595 99.9773 339.038 99.9773C337.41 99.9773 336.074 100.176 335.033 100.574C334.01 100.953 333.252 101.473 332.76 102.136C332.268 102.799 332.012 103.557 331.993 104.409C331.955 105.11 332.078 105.744 332.362 106.312C332.665 106.862 333.139 107.364 333.783 107.818C334.427 108.254 335.25 108.652 336.254 109.011C337.258 109.371 338.451 109.693 339.834 109.977L344.607 111C347.826 111.682 350.582 112.581 352.874 113.699C355.165 114.816 357.04 116.133 358.499 117.648C359.957 119.144 361.027 120.83 361.709 122.705C362.41 124.58 362.769 126.625 362.788 128.841C362.769 132.667 361.813 135.905 359.919 138.557C358.025 141.208 355.317 143.225 351.794 144.608C348.29 145.991 344.076 146.682 339.152 146.682C334.095 146.682 329.682 145.934 325.913 144.438C322.163 142.941 319.247 140.64 317.163 137.534C315.099 134.409 314.057 130.413 314.038 125.545H329.038C329.133 127.326 329.578 128.822 330.374 130.034C331.169 131.246 332.286 132.165 333.726 132.79C335.184 133.415 336.917 133.727 338.925 133.727C340.61 133.727 342.021 133.519 343.158 133.102C344.294 132.686 345.156 132.108 345.743 131.369C346.33 130.631 346.633 129.788 346.652 128.841C346.633 127.951 346.339 127.174 345.771 126.511C345.222 125.83 344.313 125.223 343.044 124.693C341.775 124.144 340.061 123.633 337.902 123.159L332.107 121.909C326.955 120.792 322.893 118.926 319.919 116.312C316.964 113.68 315.497 110.091 315.516 105.545C315.497 101.852 316.482 98.6231 318.47 95.858C320.478 93.0739 323.252 90.9053 326.794 89.3523C330.355 87.7992 334.436 87.0227 339.038 87.0227C343.735 87.0227 347.798 87.8087 351.226 89.3807C354.654 90.9527 357.296 93.1686 359.152 96.0284C361.027 98.8693 361.974 102.193 361.993 106H346.879ZM367.797 146V87.8182H409.729V100.545H383.592V110.545H407.57V123.273H383.592V133.273H409.615V146H367.797ZM445.426 111V122.818H418.153V111H445.426ZM484.895 106C484.743 104.106 484.033 102.629 482.764 101.568C481.514 100.508 479.611 99.9773 477.054 99.9773C475.425 99.9773 474.09 100.176 473.048 100.574C472.026 100.953 471.268 101.473 470.776 102.136C470.283 102.799 470.027 103.557 470.009 104.409C469.971 105.11 470.094 105.744 470.378 106.312C470.681 106.862 471.154 107.364 471.798 107.818C472.442 108.254 473.266 108.652 474.27 109.011C475.274 109.371 476.467 109.693 477.849 109.977L482.622 111C485.842 111.682 488.598 112.581 490.889 113.699C493.181 114.816 495.056 116.133 496.514 117.648C497.973 119.144 499.043 120.83 499.724 122.705C500.425 124.58 500.785 126.625 500.804 128.841C500.785 132.667 499.829 135.905 497.935 138.557C496.041 141.208 493.332 143.225 489.81 144.608C486.306 145.991 482.092 146.682 477.168 146.682C472.111 146.682 467.698 145.934 463.929 144.438C460.179 142.941 457.262 140.64 455.179 137.534C453.115 134.409 452.073 130.413 452.054 125.545H467.054C467.149 127.326 467.594 128.822 468.389 130.034C469.185 131.246 470.302 132.165 471.741 132.79C473.2 133.415 474.933 133.727 476.94 133.727C478.626 133.727 480.037 133.519 481.173 133.102C482.31 132.686 483.171 132.108 483.759 131.369C484.346 130.631 484.649 129.788 484.668 128.841C484.649 127.951 484.355 127.174 483.787 126.511C483.238 125.83 482.329 125.223 481.06 124.693C479.791 124.144 478.077 123.633 475.918 123.159L470.122 121.909C464.971 120.792 460.908 118.926 457.935 116.312C454.98 113.68 453.512 110.091 453.531 105.545C453.512 101.852 454.497 98.6231 456.486 95.858C458.493 93.0739 461.268 90.9053 464.81 89.3523C468.37 87.7992 472.452 87.0227 477.054 87.0227C481.751 87.0227 485.813 87.8087 489.241 89.3807C492.67 90.9527 495.312 93.1686 497.168 96.0284C499.043 98.8693 499.99 102.193 500.009 106H484.895ZM505.812 146V87.8182H547.744V100.545H521.608V110.545H545.585V123.273H521.608V133.273H547.631V146H505.812Z" fill="#636363"/>
<path d="M0.159091 187.545V174.818H50.7273V187.545H33.2273V233H17.6591V187.545H0.159091ZM63.4418 233H46.3963L65.6009 174.818H87.1918L106.396 233H89.3509L76.6236 190.841H76.169L63.4418 233ZM60.2599 210.045H92.3054V221.864H60.2599V210.045ZM102.065 187.545V174.818H152.634V187.545H135.134V233H119.565V187.545H102.065ZM192.01 174.818H207.805V212.091C207.805 216.523 206.745 220.358 204.624 223.597C202.521 226.816 199.586 229.307 195.817 231.068C192.048 232.811 187.673 233.682 182.692 233.682C177.673 233.682 173.279 232.811 169.51 231.068C165.741 229.307 162.805 226.816 160.703 223.597C158.62 220.358 157.578 216.523 157.578 212.091V174.818H173.374V210.727C173.374 212.527 173.771 214.136 174.567 215.557C175.362 216.958 176.461 218.057 177.862 218.852C179.283 219.648 180.893 220.045 182.692 220.045C184.51 220.045 186.12 219.648 187.521 218.852C188.923 218.057 190.021 216.958 190.817 215.557C191.612 214.136 192.01 212.527 192.01 210.727V174.818ZM214.312 233V174.818H256.244V187.545H230.108V197.545H254.085V210.273H230.108V220.273H256.131V233H214.312ZM291.942 198V209.818H264.669V198H291.942ZM331.411 193C331.259 191.106 330.549 189.629 329.28 188.568C328.03 187.508 326.126 186.977 323.57 186.977C321.941 186.977 320.606 187.176 319.564 187.574C318.541 187.953 317.784 188.473 317.291 189.136C316.799 189.799 316.543 190.557 316.524 191.409C316.486 192.11 316.609 192.744 316.893 193.312C317.196 193.862 317.67 194.364 318.314 194.818C318.958 195.254 319.782 195.652 320.786 196.011C321.789 196.371 322.982 196.693 324.365 196.977L329.138 198C332.357 198.682 335.113 199.581 337.405 200.699C339.696 201.816 341.571 203.133 343.03 204.648C344.488 206.144 345.558 207.83 346.24 209.705C346.941 211.58 347.301 213.625 347.32 215.841C347.301 219.667 346.344 222.905 344.45 225.557C342.556 228.208 339.848 230.225 336.325 231.608C332.821 232.991 328.607 233.682 323.683 233.682C318.626 233.682 314.214 232.934 310.445 231.438C306.695 229.941 303.778 227.64 301.695 224.534C299.63 221.409 298.589 217.413 298.57 212.545H313.57C313.664 214.326 314.109 215.822 314.905 217.034C315.7 218.246 316.818 219.165 318.257 219.79C319.715 220.415 321.448 220.727 323.456 220.727C325.142 220.727 326.553 220.519 327.689 220.102C328.825 219.686 329.687 219.108 330.274 218.369C330.861 217.631 331.164 216.788 331.183 215.841C331.164 214.951 330.871 214.174 330.303 213.511C329.753 212.83 328.844 212.223 327.575 211.693C326.306 211.144 324.592 210.633 322.433 210.159L316.638 208.909C311.486 207.792 307.424 205.926 304.45 203.312C301.496 200.68 300.028 197.091 300.047 192.545C300.028 188.852 301.013 185.623 303.001 182.858C305.009 180.074 307.784 177.905 311.325 176.352C314.886 174.799 318.967 174.023 323.57 174.023C328.267 174.023 332.329 174.809 335.757 176.381C339.185 177.953 341.827 180.169 343.683 183.028C345.558 185.869 346.505 189.193 346.524 193H331.411ZM352.328 233V174.818H394.26V187.545H368.124V197.545H392.101V210.273H368.124V220.273H394.146V233H352.328Z" fill="#FFD911"/>
</svg>
